<?xml version="1.0" encoding="utf-8"?>
<!-- Generator: Adobe Illustrator 22.0.1, SVG Export Plug-In . SVG Version: 6.00 Build 0)  -->
<svg version="1.1" id="Layer_1" xmlns="http://www.w3.org/2000/svg" xmlns:xlink="http://www.w3.org/1999/xlink" x="0px" y="0px"
	 viewBox="0 0 67 67" style="enable-background:new 0 0 67 67;" xml:space="preserve">
<style type="text/css">
	.st0{fill:#010101;}
</style>
<path class="st0" d="M42.8,26.1L42.8,26.1c0.5,0,1,0,1.5,0c0.6,0,1.2-0.6,1.2-1.2c0-1,0-1.9,0-2.9c0-0.7-0.5-1.2-1.2-1.2
	c-1,0-1.9,0-2.9,0c-0.7,0-1.2,0.6-1.2,1.2c0,1,0,1.9,0,2.9c0,0.1,0,0.3,0.1,0.4c0.2,0.5,0.6,0.8,1.2,0.8
	C41.8,26.1,42.3,26.1,42.8,26.1z M33.5,27.3c-3.4,0-6.1,2.7-6.2,6.1c0,3.5,2.7,6.2,6,6.3c3.5,0.1,6.2-2.7,6.3-6
	C39.8,30.2,37,27.3,33.5,27.3z M21.5,30.6L21.5,30.6c0,4.6,0,9.1,0,13.6c0,0.6,0.6,1.2,1.2,1.2c7.2,0,14.3,0,21.5,0
	c0.7,0,1.2-0.6,1.2-1.2c0-4.5,0-9,0-13.5v-0.1h-2.9c0.4,1.3,0.5,2.7,0.4,4s-0.6,2.6-1.3,3.8s-1.6,2.1-2.8,2.9
	c-2.9,2-6.8,2.2-9.9,0.4c-1.6-0.9-2.8-2.1-3.7-3.7c-1.3-2.4-1.5-4.9-0.7-7.5C23.5,30.6,22.5,30.6,21.5,30.6z M45.7,48.8
	c0.2,0,0.3,0,0.5-0.1c1.2-0.3,2.3-1.3,2.5-2.6c0-0.1,0-0.3,0.1-0.4V21.3c0-0.1,0-0.3-0.1-0.4c-0.3-1.4-1.4-2.4-2.8-2.6
	c-0.1,0-0.1,0-0.2,0H21.3c-0.1,0-0.3,0-0.4,0.1c-1.4,0.3-2.4,1.4-2.5,2.8c0,0.1,0,0.1,0,0.2v24.5c0,0.2,0,0.3,0.1,0.5
	c0.3,1.3,1.4,2.3,2.8,2.5c0.1,0,0.1,0,0.2,0H45.7z M3,4h60v60H3V4z"/>
</svg>
