<?xml version="1.0" encoding="utf-8"?>
<!-- Generator: Adobe Illustrator 22.0.1, SVG Export Plug-In . SVG Version: 6.00 Build 0)  -->
<svg version="1.1" id="Layer_2" xmlns="http://www.w3.org/2000/svg" xmlns:xlink="http://www.w3.org/1999/xlink" x="0px" y="0px"
	 viewBox="0 0 512 512" style="enable-background:new 0 0 512 512;" xml:space="preserve">
<g>
	<polygon points="219.4,296.6 292.6,256 219.4,215.3 	"/>
	<path d="M30.9,30.2v450.9h450.3V30.2H30.9z M397.4,262.2c-0.3,21.9-1.7,41.2-3.8,52c-2.2,11.4-7.4,21.2-14.1,26.5
		c-5.2,4.1-10.7,5.9-19.4,6.4c-2.6,0.1-5.9,0.4-7.3,0.5c-5,0.4-31.9,1.5-46.6,1.9c-21.9,0.6-60.2,0.8-81,0.5
		c-10-0.2-21.8-0.5-26.3-0.6c-30-1.1-50.6-2.2-54.7-3.1c-5.9-1.2-12.4-5.2-16.2-9.8c-6.1-7.5-9.3-16.6-10.9-30.5
		c-3.7-32.5-3.6-70.4,0.2-101.7c1.7-13.7,5.8-23.7,12.8-30.6c4-3.9,7.8-6.2,12.9-7.5c11-2.8,97.2-5.1,149.6-3.9
		c30.3,0.7,63,2.1,71.7,3.1c11.2,1.3,19.1,7.1,24.6,18.1c4.1,8.3,5.5,14.8,7.1,34.8h0C397.4,234.1,397.7,243.9,397.4,262.2z"/>
</g>
</svg>
